<mxfile host="app.diagrams.net" modified="2023-07-04T11:35:35.299Z" agent="Mozilla/5.0 (Macintosh; Intel Mac OS X 10_15_7) AppleWebKit/537.36 (KHTML, like Gecko) Chrome/114.0.0.0 Safari/537.36" etag="iVxo1reNDvJUqzNvIpAz" version="21.5.2" type="github">
  <diagram name="第 1 页" id="LU-fnr2DJfe2r5053KIv">
    <mxGraphModel dx="908" dy="613" grid="1" gridSize="10" guides="1" tooltips="1" connect="1" arrows="1" fold="1" page="1" pageScale="1" pageWidth="827" pageHeight="1169" math="0" shadow="0">
      <root>
        <mxCell id="0" />
        <mxCell id="1" parent="0" />
        <mxCell id="tcQKUcsGEQ5BL62iG16M-1" value="Agent: Collect daily weather of beijing" style="text;html=1;strokeColor=none;fillColor=none;align=center;verticalAlign=middle;whiteSpace=wrap;rounded=0;" vertex="1" parent="1">
          <mxGeometry x="230" y="90" width="250" height="30" as="geometry" />
        </mxCell>
        <mxCell id="tcQKUcsGEQ5BL62iG16M-2" value="LLM" style="rounded=0;whiteSpace=wrap;html=1;" vertex="1" parent="1">
          <mxGeometry x="670" y="260" width="120" height="60" as="geometry" />
        </mxCell>
      </root>
    </mxGraphModel>
  </diagram>
</mxfile>
